<svg width="60" height="68" viewBox="0 0 60 68" fill="none" xmlns="http://www.w3.org/2000/svg">
<g clip-path="url(#clip0_171_146)">
<path fill-rule="evenodd" clip-rule="evenodd" d="M40.2189 20.8078C41.0207 19.0586 41.1441 16.9345 40.6506 14.4981C42.316 16.5597 42.316 19.0586 40.2189 20.8078ZM39.3554 22.7445V30.8034L37.0732 30.4286V22.6195C32.0155 21.8074 33.3725 16.4347 34.606 13.0612C36.2714 9.3753 39.8488 9.68766 41.4525 13.4985C43.1795 16.8095 43.6113 21.3076 39.3554 22.7445Z" fill="#05581C"/>
<path fill-rule="evenodd" clip-rule="evenodd" d="M19.8288 30.8034C19.9459 25.4034 20.0045 22.6723 20.0045 22.6723C18.2473 21.9275 17.2515 20.8102 17.3101 19.1343C17.4272 14.1067 17.4858 11.6239 17.4858 11.6239C17.9544 11.6239 18.2473 11.6239 18.2473 11.6239C18.3058 16.3412 18.3644 18.6999 18.3644 18.6999C18.423 20.6861 19.4773 21.3689 19.4773 19.1964C19.6531 14.2929 19.7702 11.6239 19.7702 11.6239C20.2974 11.6239 20.5317 11.6239 20.5317 11.6239C20.4731 16.8998 20.4731 19.5688 20.4731 19.5688C20.5317 21.1826 21.586 21.1826 21.6446 19.5688C21.6446 19.5688 21.6446 16.8998 21.586 11.6239C21.586 11.6239 21.8203 11.6239 22.3475 11.6239C22.3475 11.6239 22.4646 14.2929 22.6404 19.1964C22.6404 21.3689 23.6947 20.6861 23.7533 18.6999C23.7533 18.6999 23.8118 16.3412 23.8704 11.6239C23.8704 11.6239 24.1047 11.6239 24.6319 11.6239C24.6319 11.6239 24.6905 14.1067 24.8076 19.1343C24.8076 20.8102 23.8704 21.9275 22.1132 22.6723L22.2889 30.431L19.8288 30.8034Z" fill="#05581C"/>
<path fill-rule="evenodd" clip-rule="evenodd" d="M30.5976 3.57101C31.0478 5.45049 31.2166 6.39023 31.2166 6.39023C32.961 5.32519 32.5108 1.81683 30.5976 0C28.6282 1.81683 28.178 5.32519 29.9787 6.39023C29.9224 6.45288 30.1475 5.51314 30.5976 3.57101Z" fill="#3F8A28"/>
<path fill-rule="evenodd" clip-rule="evenodd" d="M47.3965 11.339C46.5206 13.0208 46.1118 13.8929 46.1118 13.8929C48.1557 14.3912 49.966 11.4636 49.5573 8.72279C46.9294 8.59821 44.4183 10.903 45.119 12.9585C45.1774 13.0208 45.9366 12.4602 47.3965 11.339Z" fill="#3F8A28"/>
<path fill-rule="evenodd" clip-rule="evenodd" d="M12.881 9.01419C13.8664 10.7583 14.3263 11.5681 14.3263 11.5681C12.0269 12.0664 9.99028 9.13877 10.4502 6.398C13.4065 6.27342 16.2315 8.57816 15.4431 10.6337C15.3775 10.6337 14.5234 10.0731 12.881 9.01419Z" fill="#3F8A28"/>
<path fill-rule="evenodd" clip-rule="evenodd" d="M45.7911 25.1764C44.6636 26.8861 44.1295 27.7067 44.1295 27.7067C46.0878 28.6641 48.402 25.8603 48.4614 22.7829C45.8504 22.1675 42.9427 24.0823 43.2988 26.4758C43.2394 26.4758 44.0702 26.0655 45.7911 25.1764Z" fill="#3F8A28"/>
<path fill-rule="evenodd" clip-rule="evenodd" d="M10.6291 24.2576C12.4473 25.5171 13.2865 26.1468 13.2865 26.1468C11.3984 27.7562 7.9718 25.8669 6.92285 22.8581C9.65012 21.3187 13.4963 22.1584 13.8459 24.6774C13.8459 24.6774 12.797 24.5375 10.6291 24.2576Z" fill="#3F8A28"/>
<path fill-rule="evenodd" clip-rule="evenodd" d="M30 30.8034L7.51579 34.5333L0 48.8205L22.4842 45.0906L30 30.8034Z" fill="#3F8A28"/>
<path fill-rule="evenodd" clip-rule="evenodd" d="M30 30.8034L52.4842 34.5333L60 48.8205L37.5158 45.0906L30 30.8034Z" fill="#3F8A28"/>
<path fill-rule="evenodd" clip-rule="evenodd" d="M8.41369 48.3088V60.112L28.8506 64.671L29.2233 32.9459L29.9687 31.3846L30.7141 32.9459L31.0868 64.671L51.5859 60.112V48.3088H52.6419L53.0767 61.3611L29.9687 67.4188L6.92285 61.3611L7.35768 48.3088H8.41369Z" fill="#05581C"/>
<path fill-rule="evenodd" clip-rule="evenodd" d="M15 61.0902L27.8205 63.3504L28.2692 46.4957C27.2436 55.6011 22.8205 60.3799 15 61.0902Z" fill="#3F8A28"/>
<path fill-rule="evenodd" clip-rule="evenodd" d="M45.5771 60.9079L32.1174 63.3504L31.731 48.8205C32.375 57.1502 37.4626 61.2837 45.5771 60.9079Z" fill="#3F8A28"/>
</g>
<defs>
<clipPath id="clip0_171_146">
<rect width="60" height="68" fill="white"/>
</clipPath>
</defs>
</svg>
