<?xml version="1.0" encoding="iso-8859-1"?>
<!-- Uploaded to: SVG Repo, www.svgrepo.com, Generator: SVG Repo Mixer Tools -->
<svg height="800px" width="800px" version="1.1" id="Layer_1" xmlns="http://www.w3.org/2000/svg" xmlns:xlink="http://www.w3.org/1999/xlink" 
	 viewBox="0 0 473.654 473.654" xml:space="preserve">
<circle style="fill:#1FA85B;" cx="236.827" cy="236.827" r="236.827"/>
<path style="fill:#81C78B;" d="M367.686,289.08c-18.324-17.625-36.876-28.712-59.078-12.285
	c-22.34,16.525-24.704,34.875-24.704,34.875s2.098,35.167-82.671-41.072c-76.291-84.802-41.105-82.704-41.105-82.704
	s18.343-2.363,34.875-24.7c16.428-22.202,4.832-40.275-12.288-59.085c-54.777-60.185-87.985,8.208-87.985,8.208
	c-38.779,65.274,25.867,142.848,75.738,189.062c46.225,49.867,123.765,114.453,189.009,75.678
	C359.478,377.061,428.731,347.814,367.686,289.08z"/>
<path style="fill:#404040;" d="M125.081,82.084c-0.045,0.015-0.071,0.052-0.116,0.071c0.494-0.206,0.995-0.389,1.496-0.572
	C126.001,81.747,125.534,81.9,125.081,82.084z"/>
<g>
	<path style="fill:#63BD71;" d="M297.15,109.207c14.603,0.007,29.202,0.004,43.802,0.004c7.932-0.004,14.566,6.623,14.569,14.569
		c-0.004,14.562-0.004,29.135-0.004,43.704c0,18.803-29.131,18.81-29.131,0.004c0-14.569,0.004-29.139,0-43.708
		c4.854,4.85,9.712,9.708,14.569,14.569c-14.603-0.007-29.202-0.007-43.802-0.007C278.344,138.342,278.34,109.211,297.15,109.207
		L297.15,109.207z"/>
	<path style="fill:#63BD71;" d="M271.908,151.43c10.351,0.004,20.699,0,31.042,0c5.628,0,10.332,4.708,10.332,10.329
		c0.004,10.329,0.004,20.657-0.004,30.982c0,13.32-20.646,13.32-20.646,0c0-10.332,0-20.661-0.007-30.99
		c3.452,3.459,6.888,6.896,10.332,10.336c-10.347-0.007-20.695,0-31.046,0C258.584,172.084,258.577,151.43,271.908,151.43
		L271.908,151.43z"/>
	<path style="fill:#63BD71;" d="M247.926,184.081c8.178,0.004,16.361,0,24.532-0.004c4.45,0.004,8.163,3.717,8.163,8.167
		c0.004,8.16,0.004,16.323,0,24.483c0,10.527-16.316,10.527-16.316,0c0-8.167,0-16.327-0.007-24.487
		c2.726,2.726,5.445,5.445,8.167,8.163c-8.178-0.004-16.357,0-24.535,0C237.399,200.4,237.396,184.081,247.926,184.081
		L247.926,184.081z"/>
	<path style="fill:#63BD71;" d="M229.225,210.284c6.301,0,12.602,0,18.904-0.007c3.429,0.007,6.29,2.872,6.29,6.286
		c0,6.294,0,12.58,0,18.874c0,8.107-12.572,8.107-12.572,0c0-6.297,0-12.584-0.004-18.874c2.102,2.105,4.196,4.2,6.29,6.294
		c-6.301-0.004-12.602,0-18.904-0.004C221.114,222.852,221.11,210.284,229.225,210.284L229.225,210.284z"/>
</g>
</svg>