<svg width="47" height="47" viewBox="0 0 47 47" fill="none" xmlns="http://www.w3.org/2000/svg">
<path d="M34.937 18.7899L37.6984 18.6139C37.7031 18.6136 37.7081 18.6132 37.7131 18.6128C39.681 18.4459 41.4474 17.4091 42.5597 15.7677L44.7428 12.5467C46.6429 9.74265 47.3791 6.35584 46.815 3.01049C46.7042 2.35347 46.37 1.74801 45.8745 1.30627C45.3785 0.864166 44.741 0.603087 44.079 0.571354C40.7077 0.409081 37.4535 1.5504 34.9133 3.78363L31.9952 6.34935C30.5081 7.65654 29.6963 9.54432 29.7673 11.5295C29.7677 11.5341 29.7677 11.5392 29.768 11.5442L29.9254 14.322C29.9867 15.4049 29.5919 16.4734 28.8443 17.2516L6.04633 40.8042C5.43602 41.4443 5.12083 42.3223 5.1592 43.2769C5.20151 44.3277 5.68094 45.3597 6.44185 46.038C7.12925 46.6507 8.07412 46.9998 9.01862 46.9998C9.11974 46.9998 9.22087 46.9958 9.32163 46.9875C10.2686 46.9114 11.098 46.4917 11.6596 45.8015L32.173 20.2222C32.8533 19.3806 33.8609 18.8584 34.937 18.7899ZM31.0779 19.3308L10.5663 44.9079C10.2529 45.293 9.77093 45.5303 9.20939 45.5754C8.54135 45.6291 7.85646 45.4055 7.37667 44.9778C6.89689 44.5498 6.59425 43.8928 6.56735 43.2195C6.5444 42.6537 6.72047 42.1442 7.05969 41.7886L29.8559 18.2378C30.8778 17.1744 31.4157 15.7179 31.3325 14.2416L31.1751 11.471C31.1217 9.91718 31.7581 8.43978 32.9225 7.41602L35.8406 4.85031C38.1054 2.8594 41.0078 1.84285 44.012 1.98637C44.3541 2.00296 44.6833 2.13783 44.9396 2.36645C45.196 2.59471 45.3685 2.90772 45.4259 3.24705C45.9286 6.22962 45.2724 9.24862 43.5785 11.7483L41.3954 14.9696C40.5244 16.2548 39.1421 17.0673 37.6016 17.2003L34.8477 17.3756C33.3804 17.4694 32.007 18.1812 31.0779 19.3308Z" fill="#505050"/>
<path d="M45.6985 40.625L30.4125 26.6238C30.1249 26.3602 29.6796 26.3811 29.4171 26.6703C29.1553 26.9595 29.1761 27.4077 29.4637 27.6713L44.7457 41.6693C45.1093 42.0072 45.3155 42.5052 45.3266 43.0713C45.3399 43.745 45.0771 44.4189 44.6235 44.8751C44.1702 45.3309 43.5011 45.5959 42.8298 45.5822C42.2669 45.5711 41.7717 45.3637 41.4393 45.002L27.8182 29.9633C27.556 29.6738 27.1103 29.6532 26.8227 29.9165C26.5352 30.1801 26.5144 30.6283 26.7765 30.9175L40.4008 45.9598C40.9996 46.611 41.8523 46.9803 42.8022 46.9991C42.827 46.9994 42.8514 46.9998 42.8761 46.9998C43.897 46.9998 44.9179 46.5833 45.6196 45.8772C46.3389 45.1538 46.756 44.0947 46.7352 43.0436C46.7165 42.0883 46.3497 41.2308 45.6985 40.625Z" fill="#505050"/>
<path d="M8.5012 18.6556C9.66731 19.736 11.1823 20.3519 12.7672 20.3902C12.7723 20.3905 12.7773 20.3905 12.782 20.3905L15.5488 20.3992C16.6274 20.4024 17.664 20.8629 18.3916 21.6602L19.6104 23.0056C19.7496 23.1592 19.94 23.2371 20.1314 23.2371C20.3007 23.2371 20.4707 23.1762 20.6055 23.0525C20.8934 22.7889 20.9142 22.3407 20.6521 22.0515L19.4315 20.7042C18.4375 19.6145 17.024 18.987 15.5534 18.982L12.7941 18.9733C11.5682 18.942 10.3959 18.4699 9.48766 17.6431L1.46941 8.05745C1.38766 7.95937 1.39375 7.81729 1.48376 7.72678C1.54543 7.66439 1.61787 7.65538 1.65552 7.65538C1.69317 7.65538 1.7656 7.66439 1.82764 7.72678L9.12621 15.0669C9.84768 15.7924 11.0217 15.7924 11.7431 15.0665L12.6009 14.2043V14.204L14.1238 12.6725C14.1238 12.6725 14.1241 12.6725 14.1241 12.6721L14.1245 12.6718L14.9819 11.8095C15.7033 11.084 15.7033 9.90339 14.9819 9.17785L7.68328 1.83809C7.58861 1.74289 7.58861 1.58747 7.68328 1.49227C7.77328 1.40176 7.91456 1.39563 8.0121 1.47785L17.5439 9.5417C18.3665 10.4548 18.8359 11.6339 18.8671 12.8665L18.8753 15.6417C18.8804 17.1202 19.5046 18.5417 20.5897 19.5434L21.8957 20.7396C22.1836 21.0032 22.629 20.9823 22.8911 20.6931C23.1529 20.4035 23.1321 19.9556 22.8445 19.692L21.5407 18.4977C20.7457 17.7642 20.2881 16.7214 20.2846 15.637L20.276 12.8546C20.276 12.8495 20.276 12.8445 20.2756 12.8394C20.2376 11.2456 19.6251 9.72201 18.5508 8.54932C18.5307 8.52732 18.5092 8.5064 18.4863 8.48693L8.91895 0.393508C8.25772 -0.166151 7.29816 -0.124321 6.68714 0.49015C6.04277 1.13816 6.04277 2.19221 6.68714 2.83985L13.9857 10.18C14.1578 10.3531 14.1578 10.6347 13.9857 10.8078L13.6261 11.1691L5.49163 2.98914C5.21659 2.7122 4.77052 2.7122 4.49549 2.98914C4.22045 3.26573 4.22045 3.71432 4.49549 3.99091L12.6299 12.1712L12.1028 12.701L3.96837 4.521C3.69334 4.24441 3.24726 4.24441 2.97223 4.521C2.69684 4.79758 2.69684 5.24617 2.97223 5.52276L11.1063 13.7031L10.747 14.0648C10.5749 14.2379 10.2948 14.2379 10.1227 14.0648L2.82378 6.72502C2.51181 6.41129 2.09693 6.2382 1.65552 6.2382C1.2141 6.2382 0.799224 6.41129 0.487258 6.72502C-0.123765 7.33949 -0.165002 8.30447 0.391158 8.96978L8.43953 18.5907C8.45853 18.6138 8.47933 18.6354 8.5012 18.6556Z" fill="#505050"/>
</svg>
