<svg width="48" height="47" viewBox="0 0 48 47" fill="none" xmlns="http://www.w3.org/2000/svg">
<path d="M45.0675 31.9146C43.934 32.7067 42.6316 33.2216 41.2642 33.4181C39.8969 33.6146 38.5028 33.4871 37.1933 33.046C37.0747 33.0036 36.9476 32.9906 36.8229 33.0079C36.6982 33.0253 36.5794 33.0726 36.4768 33.1458L32.9528 35.6531L33.8597 36.9347L37.0571 34.656C38.5515 35.094 40.1245 35.192 41.6614 34.9429C43.1983 34.6937 44.6605 34.1037 45.9414 33.2158C46.4029 32.9029 46.8403 32.5557 47.25 32.177L46.1881 31.022C45.8376 31.3475 45.463 31.6459 45.0675 31.9146Z" fill="#535353"/>
<path d="M37.1815 20.188C36.0606 20.9065 35.1628 21.9257 34.5896 23.13C34.0165 24.3343 33.791 25.6756 33.9386 27.0019L24.0112 33.3869L14.0822 27.0059C14.2331 25.6791 14.0086 24.3365 13.4346 23.1318C12.8606 21.927 11.9601 20.9088 10.8362 20.1935C9.34442 19.1618 7.53034 18.7078 5.73039 18.9159C4.88135 18.9993 4.06114 19.2697 3.32831 19.7079C2.59548 20.1461 1.96811 20.7413 1.49101 21.4509C1.0139 22.1604 0.698818 22.967 0.568263 23.8129C0.437707 24.6587 0.494896 25.5231 0.735747 26.3443C1.21823 28.0959 2.31757 29.6124 3.8298 30.6124C4.91257 31.3912 6.1922 31.848 7.5219 31.9304C8.8516 32.0129 10.1775 31.7175 11.3476 31.0784L19.0541 36.5684L11.7204 41.2867C11.3737 41.5077 11.0748 41.7963 10.8413 42.1354C10.6079 42.4744 10.4446 42.857 10.3612 43.2605C10.2778 43.664 10.276 44.0802 10.3558 44.4845C10.4357 44.8887 10.5956 45.2727 10.8261 45.6138C11.0556 45.9542 11.3507 46.2451 11.6939 46.4694C12.0371 46.6938 12.4215 46.847 12.8246 46.9202C13.2277 46.9934 13.6412 46.9851 14.041 46.8957C14.4408 46.8063 14.8188 46.6376 15.1527 46.3996L24.0112 40.0963L32.8697 46.4043C33.204 46.6497 33.5842 46.8248 33.9876 46.9192C34.3909 47.0136 34.8092 47.0254 35.2172 46.9538C35.6252 46.8822 36.0146 46.7286 36.362 46.5024C36.7095 46.2762 37.0079 45.9819 37.2393 45.6372C37.4707 45.2925 37.6304 44.9045 37.7088 44.4964C37.7871 44.0884 37.7826 43.6686 37.6955 43.2623C37.6083 42.856 37.4403 42.4715 37.2016 42.1319C36.9628 41.7924 36.6582 41.5046 36.3059 41.286L28.9636 36.5715L36.6756 31.0792C37.8455 31.7186 39.1713 32.0141 40.501 31.932C41.8307 31.8499 43.1105 31.3933 44.1934 30.6148C47.4119 28.4351 48.4629 24.3226 46.5341 21.4467C44.6053 18.5709 40.4071 18.0083 37.1815 20.188ZM14.2459 45.1212C13.9113 45.3472 13.5019 45.433 13.1051 45.3603C12.7083 45.2876 12.3556 45.0622 12.1221 44.7322C12.0091 44.565 11.9307 44.3766 11.8916 44.1784C11.8525 43.9802 11.8534 43.7761 11.8944 43.5782C11.9354 43.3804 12.0155 43.1928 12.1301 43.0266C12.2447 42.8604 12.3914 42.719 12.5614 42.6107L20.4308 37.5474L22.6541 39.1299L14.2459 45.1212ZM36.1258 43.5788C36.1872 43.8769 36.1577 44.1866 36.0412 44.4677C35.9247 44.7488 35.7266 44.9882 35.4726 45.1548C35.2187 45.3213 34.9207 45.4073 34.6173 45.4016C34.314 45.3959 34.0194 45.2987 33.7718 45.1227L11.8143 29.4865C11.6804 29.3912 11.5201 29.3406 11.356 29.3417C11.1919 29.3428 11.0322 29.3957 10.8997 29.4927C9.97196 30.1002 8.88119 30.4083 7.77388 30.3756C6.66657 30.3428 5.59576 29.9709 4.70531 29.3097C3.50723 28.5212 2.63471 27.3235 2.24949 25.9388C2.06516 25.3339 2.01794 24.6954 2.1113 24.0698C2.20466 23.4443 2.43622 22.8476 2.78906 22.3234C3.14189 21.7992 3.60706 21.3608 4.15053 21.0403C4.69399 20.7198 5.30201 20.5252 5.93008 20.4708C7.3538 20.3105 8.78718 20.6734 9.96464 21.4923C10.9085 22.0736 11.6526 22.9307 12.0969 23.9486C12.5412 24.9665 12.6645 26.0964 12.4502 27.1866C12.41 27.3464 12.4208 27.5149 12.4812 27.6681C12.5417 27.8214 12.6486 27.9518 12.787 28.0407L35.461 42.6099C35.631 42.7182 35.7776 42.8599 35.8918 43.0263C36.0061 43.1928 36.0857 43.3807 36.1258 43.5788ZM43.3147 29.3081C42.424 29.9691 41.353 30.3409 40.2455 30.3733C39.1381 30.4058 38.0473 30.0974 37.1196 29.4896C36.987 29.3925 36.8274 29.3397 36.6633 29.3385C36.4991 29.3374 36.3388 29.3881 36.2049 29.4833L27.5414 35.6545L25.4646 34.3188L35.2331 28.0328C35.3711 27.944 35.4779 27.8139 35.5383 27.661C35.5987 27.508 35.6097 27.3399 35.5698 27.1803C35.3598 26.0899 35.4854 24.9612 35.9299 23.9441C36.3745 22.927 37.1169 22.0697 38.0585 21.486C40.5645 19.7912 43.7862 20.1652 45.2341 22.3173C46.6821 24.4695 45.8199 27.6132 43.3147 29.3081Z" fill="#535353"/>
<path d="M9.07499 1.44015L8.2081 0.131104C6.31642 1.38877 4.89777 3.24454 4.17744 5.40369C3.45712 7.56284 3.47641 9.90158 4.23227 12.0485L5.70843 11.5236C5.06928 9.70671 5.0535 7.72765 5.6636 5.90074C6.27369 4.07384 7.47467 2.50385 9.07578 1.44015H9.07499Z" fill="#535353"/>
<path d="M7.37026 14.354C6.99319 13.9248 6.65903 13.4596 6.37258 12.9648L5.01703 13.7506C5.35524 14.3355 5.75 14.8855 6.1956 15.3928L7.37026 14.354Z" fill="#535353"/>
<path d="M32.6097 26.8723L34.8392 15.6881C36.6519 15.5298 38.3333 14.6743 39.5316 13.3006C40.73 11.927 41.3525 10.1415 41.2688 8.31782C41.1851 6.49416 40.4018 4.77362 39.0827 3.5162C37.7637 2.25878 36.0111 1.56191 34.1916 1.57141C32.6081 1.56578 31.07 2.1021 29.8313 3.09182C29.1861 2.13928 28.3184 1.35956 27.304 0.820646C26.2895 0.281737 25.1591 0 24.0113 0C22.8634 0 21.733 0.281737 20.7185 0.820646C19.7041 1.35956 18.8364 2.13928 18.1912 3.09182C16.9525 2.1021 15.4144 1.56578 13.8309 1.57141C12.0177 1.57124 10.2741 2.27226 8.96278 3.52873C7.65143 4.7852 6.87315 6.50044 6.78975 8.31785C6.70636 10.1353 7.32426 11.915 8.515 13.287C9.70574 14.6591 11.3777 15.5179 13.1833 15.6849L15.4128 26.8723L16.9476 26.5643L16.5091 24.3579H31.5134L31.0749 26.558L32.6097 26.8723ZM28.8297 22.7865L29.4852 18.1836L27.9346 17.9604L27.2478 22.7865H24.7944V14.1433H23.2281V22.7865H20.7747L20.0879 17.9604L18.5374 18.1836L19.1928 22.7865H16.1959L14.5983 14.7719C14.5622 14.5944 14.4661 14.4349 14.3263 14.3204C14.1864 14.2058 14.0114 14.1433 13.8309 14.1433C12.377 14.1433 10.9827 13.5638 9.95472 12.5323C8.92669 11.5008 8.34916 10.1018 8.34916 8.64309C8.34916 7.18435 8.92669 5.78535 9.95472 4.75387C10.9827 3.72238 12.377 3.1429 13.8309 3.1429C14.5772 3.14098 15.3158 3.2935 16.0007 3.59092C16.6856 3.88835 17.302 4.3243 17.8114 4.87153C17.8985 4.96388 18.0065 5.03367 18.1264 5.07491C18.2462 5.11614 18.3742 5.12759 18.4994 5.10828C18.6246 5.08896 18.7433 5.03945 18.8452 4.964C18.9472 4.88856 19.0294 4.78942 19.0847 4.67509C19.5321 3.7455 20.2316 2.96132 21.103 2.41257C21.9745 1.86382 22.9824 1.57273 24.0113 1.57273C25.0401 1.57273 26.048 1.86382 26.9195 2.41257C27.7909 2.96132 28.4904 3.7455 28.9378 4.67509C28.9931 4.78942 29.0753 4.88856 29.1773 4.964C29.2792 5.03945 29.3979 5.08896 29.5231 5.10828C29.6483 5.12759 29.7763 5.11614 29.8962 5.07491C30.016 5.03367 30.1241 4.96388 30.2111 4.87153C30.7205 4.3243 31.3369 3.88835 32.0218 3.59092C32.7067 3.2935 33.4453 3.14098 34.1916 3.1429C35.6455 3.1429 37.0398 3.72238 38.0678 4.75387C39.0958 5.78535 39.6734 7.18435 39.6734 8.64309C39.6734 10.1018 39.0958 11.5008 38.0678 12.5323C37.0398 13.5638 35.6455 14.1433 34.1916 14.1433C34.0111 14.1433 33.8361 14.2058 33.6962 14.3204C33.5564 14.4349 33.4603 14.5944 33.4242 14.7719L31.8266 22.7865H28.8297Z" fill="#535353"/>
</svg>
