<svg width="56" height="56" viewBox="0 0 56 56" fill="none" xmlns="http://www.w3.org/2000/svg">
<path d="M10.675 21C10.4139 20.9994 10.1563 20.9405 9.92097 20.8274C9.68564 20.7144 9.4786 20.5501 9.315 20.3466C9.1514 20.1432 9.03539 19.9057 8.97548 19.6516C8.91557 19.3975 8.91326 19.1332 8.96874 18.8781C10.3687 12.1406 18.3531 7 28 7C37.6469 7 45.6312 12.1406 47.0312 18.8781C47.0867 19.1332 47.0844 19.3975 47.0245 19.6516C46.9646 19.9057 46.8486 20.1432 46.685 20.3466C46.5214 20.5501 46.3143 20.7144 46.079 20.8274C45.8437 20.9405 45.5861 20.9994 45.325 21H10.675Z" stroke="#4F4F4F" stroke-width="2" stroke-linecap="round" stroke-linejoin="round"/>
<path d="M45.5 36.75V40.25C45.5 42.1065 44.7625 43.887 43.4497 45.1997C42.137 46.5125 40.3565 47.25 38.5 47.25H17.5C15.6435 47.25 13.863 46.5125 12.5503 45.1997C11.2375 43.887 10.5 42.1065 10.5 40.25V36.75" stroke="#4F4F4F" stroke-width="2" stroke-linecap="round" stroke-linejoin="round"/>
<path d="M6.125 38.5L14.875 35L23.625 38.5L32.375 35L41.125 38.5L49.875 35" stroke="#4F4F4F" stroke-width="2" stroke-linecap="round" stroke-linejoin="round"/>
<path d="M5.25 28H50.75" stroke="#4F4F4F" stroke-width="2" stroke-linecap="round" stroke-linejoin="round"/>
</svg>
