<svg width="49" height="63" viewBox="0 0 49 63" fill="none" xmlns="http://www.w3.org/2000/svg">
<path d="M40.4662 20.25L48.5372 8.1225C48.7953 7.78381 48.9527 7.37767 48.9909 6.95169C49.0291 6.52572 48.9465 6.09754 48.7528 5.71736C48.5592 5.33718 48.2624 5.02074 47.8974 4.80513C47.5323 4.58952 47.1141 4.48368 46.6917 4.5H8.89366V0H4.44683V58.5H0V63H13.3405V58.5H8.89366V36H46.6917C47.0921 35.9979 47.4845 35.8864 47.8275 35.6774C48.1705 35.4683 48.4513 35.1694 48.6404 34.8122C48.8294 34.455 48.9196 34.0527 48.9014 33.648C48.8832 33.2432 48.7574 32.8509 48.5372 32.5125L40.4662 20.25ZM8.89366 31.5V9H42.5117L35.9526 18.8775C35.7089 19.2472 35.5788 19.6818 35.5788 20.1262C35.5788 20.5707 35.7089 21.0053 35.9526 21.375L42.6229 31.5H8.89366Z" fill="#05581C"/>
</svg>
