<?xml version="1.0" encoding="iso-8859-1"?>
<!-- Uploaded to: SVG Repo, www.svgrepo.com, Generator: SVG Repo Mixer Tools -->
<svg height="800px" width="800px" version="1.1" id="Layer_1" xmlns="http://www.w3.org/2000/svg" xmlns:xlink="http://www.w3.org/1999/xlink" 
	 viewBox="0 0 511.999 511.999" xml:space="preserve">
<circle style="fill:#75EF84;" cx="256.001" cy="256.002" r="240.651"/>
<path style="fill:#B7FFB9;" d="M255.999,15.348C123.09,15.348,15.346,123.091,15.346,256s107.745,240.652,240.653,240.652V15.348z"
	/>
<path style="fill:#3AB94B;" d="M511.861,255.999c0-68.342-26.614-132.595-74.94-180.921C389.413,27.571,326.51,1.066,259.464,0.18
	C258.296,0.074,257.137,0,255.999,0c-1.138,0-2.296,0.074-3.465,0.18C185.488,1.065,122.585,27.57,75.077,75.078
	C26.752,123.405,0.138,187.657,0.138,255.999s26.614,132.595,74.94,180.921c47.508,47.508,110.41,74.013,177.457,74.898
	c1.168,0.107,2.327,0.18,3.465,0.18s2.297-0.074,3.465-0.18c67.047-0.885,129.949-27.39,177.457-74.898
	C485.247,388.595,511.861,324.343,511.861,255.999z M31.071,271.208h89.627c1.191,31.071,6.011,61.457,14.161,89.978H56.487
	C41.865,333.534,33.176,303.012,31.071,271.208z M480.927,240.791H391.3c-1.191-31.071-6.011-61.457-14.161-89.978h78.373
	C470.134,178.466,478.822,208.987,480.927,240.791z M360.861,240.791h-89.654v-89.978h74.195
	C354.291,178.994,359.567,209.465,360.861,240.791z M271.208,120.395V36.677c12.671,8.29,29.685,24.946,45.605,50.764
	c6.385,10.354,12.124,21.382,17.197,32.954H271.208z M240.79,36.677v83.718h-62.801c5.073-11.572,10.812-22.6,17.197-32.954
	C211.105,61.623,228.12,44.967,240.79,36.677z M240.79,150.813v89.978h-89.654c1.295-31.327,6.57-61.797,15.459-89.978H240.79z
	 M120.698,240.791H31.071c2.105-31.804,10.794-62.326,25.416-89.978h78.373C126.71,179.335,121.889,209.721,120.698,240.791z
	 M151.137,271.208h89.654v89.978h-74.195C157.708,333.005,152.432,302.535,151.137,271.208z M240.79,391.604v83.718
	c-12.671-8.29-29.685-24.946-45.605-50.764c-6.385-10.354-12.124-21.382-17.197-32.954H240.79z M271.208,475.322v-83.718h62.801
	c-5.073,11.572-10.812,22.6-17.197,32.954C300.893,450.377,283.879,467.032,271.208,475.322z M271.208,361.186v-89.978h89.654
	c-1.295,31.327-6.57,61.797-15.459,89.978H271.208z M391.3,271.208h89.627c-2.105,31.804-10.794,62.326-25.416,89.978h-78.373
	C385.288,332.665,390.11,302.279,391.3,271.208z M436.134,120.395h-69.235c-6.771-17.357-14.856-33.773-24.196-48.919
	c-7.322-11.875-15.188-22.591-23.282-31.908c35.905,10.467,68.81,29.837,95.992,57.018
	C422.928,104.102,429.833,112.063,436.134,120.395z M192.578,39.569c-8.093,9.317-15.96,20.033-23.282,31.908
	c-9.339,15.146-17.425,31.562-24.196,48.919H75.865c6.299-8.332,13.206-16.293,20.721-23.809
	C123.767,69.406,156.673,50.035,192.578,39.569z M75.865,391.604h69.236c6.771,17.357,14.856,33.773,24.196,48.919
	c7.322,11.875,15.189,22.591,23.282,31.908c-35.906-10.467-68.81-29.837-95.992-57.018C89.07,407.897,82.165,399.937,75.865,391.604
	z M319.421,472.431c8.093-9.317,15.96-20.033,23.282-31.908c9.339-15.146,17.425-31.562,24.196-48.919h69.235
	c-6.299,8.332-13.206,16.294-20.721,23.809C388.231,442.594,355.326,461.964,319.421,472.431z"/>
</svg>