<svg width="68" height="54" viewBox="0 0 68 54" fill="none" xmlns="http://www.w3.org/2000/svg">
<path d="M66.9492 21.8594C66.2109 21.1211 65.0215 21.1211 64.2969 21.8594L45.2383 40.918L39.9063 35.5859C39.168 34.8477 37.9785 34.8477 37.2539 35.5859C36.5156 36.3242 36.5156 37.5137 37.2539 38.2383L43.9121 44.8965C44.2812 45.2656 44.7598 45.4434 45.2383 45.4434C45.7168 45.4434 46.1953 45.2656 46.5645 44.8965L56.4492 35.0117C56.791 36.1328 56.9688 37.3086 56.9414 38.5117C56.8184 44.7871 51.5957 49.7774 45.3203 49.668C39.0449 49.5449 34.041 44.3223 34.1641 38.0469C34.2871 31.8398 39.373 26.8906 45.5527 26.8906C45.6348 26.8906 45.7031 26.8906 45.7852 26.8906C47.7129 26.9316 49.5996 27.4512 51.2539 28.4219C52.1563 28.9414 53.3047 28.6406 53.8242 27.7383C54.3438 26.8359 54.043 25.6875 53.1406 25.168C51.6777 24.3203 50.0781 23.7324 48.4238 23.418C49.4766 20.3828 50.0098 17.3477 50.0098 14.3535C50.0098 6.98438 44.7461 1.09181 37.7598 0.654305C32.9062 0.353524 28.1348 2.85548 25.373 6.80665C22.6113 2.85548 17.8262 0.353524 12.9863 0.654305C8.57031 0.927743 4.7832 3.34767 2.56836 7.28517C2.0625 8.18751 2.39062 9.33595 3.29297 9.84181C4.19531 10.3477 5.34375 10.0195 5.84961 9.1172C7.42187 6.30079 10.1152 4.57813 13.2324 4.38673C17.7441 4.08595 22.2012 7.16212 23.5957 11.4961C23.5957 11.5098 23.6094 11.5234 23.623 11.5371C23.6777 11.7012 23.7598 11.8516 23.8555 11.9883C23.8691 12.002 23.8828 12.0293 23.8965 12.043C23.9922 12.1797 24.1152 12.3027 24.2656 12.3984C24.293 12.4258 24.3203 12.4395 24.3613 12.4668C24.498 12.5625 24.6484 12.6445 24.8125 12.6992C24.8125 12.6992 24.8125 12.6992 24.8262 12.6992C24.9902 12.7539 25.168 12.7813 25.3457 12.7813C25.373 12.7813 25.3867 12.7949 25.4004 12.7949C25.4141 12.7949 25.4414 12.7813 25.4551 12.7813C25.6328 12.7813 25.7969 12.7539 25.9609 12.6992H25.9746C26.0156 12.6856 26.0566 12.6582 26.084 12.6445C26.1523 12.6172 26.2207 12.5899 26.2754 12.5625C26.3301 12.5352 26.3711 12.4941 26.4258 12.4668C26.4805 12.4258 26.5352 12.3984 26.5762 12.3574C26.6172 12.3164 26.6582 12.2754 26.6992 12.2344C26.7402 12.1934 26.7949 12.1524 26.8223 12.0977C26.8633 12.0566 26.8906 12.002 26.9316 11.9473C26.9727 11.8926 27 11.8516 27.0273 11.7969C27.0547 11.7422 27.082 11.6738 27.1094 11.6055C27.123 11.5645 27.1504 11.5234 27.1641 11.4824C28.5586 7.14845 33.0156 4.09962 37.5273 4.37306C42.5039 4.68751 46.25 8.96681 46.25 14.3262C46.25 17.2246 45.6621 20.1777 44.5 23.1445C36.7754 23.6777 30.5547 30.0488 30.4043 37.9375C30.3906 38.6484 30.4453 39.3594 30.5273 40.0566C28.9551 41.1914 27.3418 42.2168 25.4004 43.3106C12.3027 35.9004 4.50977 25.127 4.50977 14.3262C4.50977 13.2871 3.67578 12.4531 2.63672 12.4531C1.59766 12.4531 0.763672 13.2871 0.763672 14.3262C0.763672 26.7539 9.60938 38.9902 24.4434 47.084C24.4434 47.084 24.4434 47.084 24.457 47.084C24.4707 47.0977 24.4844 47.0977 24.498 47.1113C24.5801 47.1524 24.6758 47.1797 24.7578 47.207C24.8125 47.2207 24.8672 47.2617 24.9219 47.2754C25.0723 47.3164 25.2363 47.3438 25.4004 47.3438C25.5645 47.3438 25.7148 47.3164 25.8789 47.2754C25.9336 47.2617 25.9883 47.2344 26.043 47.207C26.125 47.1797 26.2207 47.1524 26.3027 47.1113C28.2988 46.0176 29.9668 45.0195 31.5391 43.9395C33.7539 49.3672 39.0312 53.2637 45.2656 53.3867C45.375 53.3867 45.4707 53.3867 45.5801 53.3867C53.7832 53.3867 60.5508 46.7969 60.7148 38.5527C60.7559 36.2832 60.3047 34.1094 59.3887 32.0723L66.9766 24.4844C67.6738 23.7871 67.6738 22.5977 66.9492 21.8594Z" fill="#05581C"/>
</svg>
