<svg width="78" height="78" viewBox="0 0 78 78" fill="none" xmlns="http://www.w3.org/2000/svg">
<path d="M55.3252 22.6298L53.8968 24.0582L52.4684 22.6298C51.4515 21.6552 50.0932 21.1178 48.6847 21.1327C47.2762 21.1477 45.9297 21.7138 44.9337 22.7098C43.9377 23.7058 43.3715 25.0524 43.3566 26.4609C43.3416 27.8693 43.879 29.2276 44.8537 30.2446L52.1016 37.1061C52.3372 37.342 52.6171 37.5292 52.9251 37.6569C53.2331 37.7846 53.5633 37.8503 53.8968 37.8503C54.2302 37.8503 54.5604 37.7846 54.8685 37.6569C55.1765 37.5292 55.4563 37.342 55.692 37.1061L62.9399 30.2446C63.9145 29.2276 64.452 27.8693 64.437 26.4609C64.422 25.0524 63.8559 23.7058 62.8599 22.7098C61.8639 21.7138 60.5173 21.1477 59.1088 21.1327C57.7004 21.1178 56.3421 21.6552 55.3252 22.6298ZM13.9644 22.2642L20.8504 22.5847L21.1709 15.6988C21.1922 14.9385 20.9143 14.2002 20.3969 13.6427C19.8796 13.0852 19.1641 12.753 18.4043 12.7175C17.6445 12.6821 16.9012 12.9462 16.3342 13.4531C15.7671 13.96 15.4217 14.6692 15.3721 15.4282L15.3221 16.5153L14.235 16.4654C13.4821 16.4562 12.7551 16.7398 12.2072 17.2563C11.6594 17.7728 11.3335 18.4819 11.2984 19.2341C11.2634 19.9862 11.5217 20.7226 12.0191 21.2879C12.5165 21.8532 13.214 22.2032 13.9644 22.2642ZM71.3164 36.3273L70.4779 36.3663L70.4389 35.5278C70.4269 35.2331 70.3569 34.9437 70.2327 34.6762C70.1085 34.4086 69.9326 34.1683 69.7152 33.969C69.4978 33.7697 69.2431 33.6153 68.9658 33.5148C68.6885 33.4142 68.3941 33.3695 68.0995 33.3832C67.8049 33.3968 67.5158 33.4686 67.249 33.5943C66.9822 33.7201 66.7429 33.8974 66.5449 34.1159C66.3468 34.3345 66.194 34.5901 66.0951 34.8679C65.9961 35.1458 65.9531 35.4405 65.9685 35.735L66.2147 41.0427L71.5223 40.7965C72.1048 40.7553 72.6481 40.488 73.0363 40.0517C73.4244 39.6155 73.6266 39.0447 73.5997 38.4614C73.5728 37.8781 73.319 37.3284 72.8924 36.9297C72.4658 36.531 71.9002 36.3148 71.3164 36.3273Z" fill="#05581C"/>
<path d="M23.3842 8.90552C24.2255 8.90552 24.9076 8.22345 24.9076 7.38208C24.9076 6.54071 24.2255 5.85864 23.3842 5.85864C22.5428 5.85864 21.8607 6.54071 21.8607 7.38208C21.8607 8.22345 22.5428 8.90552 23.3842 8.90552Z" fill="#05581C"/>
<path d="M64.517 13.4758C65.3583 13.4758 66.0404 12.7938 66.0404 11.9524C66.0404 11.111 65.3583 10.429 64.517 10.429C63.6756 10.429 62.9935 11.111 62.9935 11.9524C62.9935 12.7938 63.6756 13.4758 64.517 13.4758Z" fill="#05581C"/>
<path d="M49.2826 46.9915C50.124 46.9915 50.806 46.3094 50.806 45.468C50.806 44.6266 50.124 43.9446 49.2826 43.9446C48.4412 43.9446 47.7592 44.6266 47.7592 45.468C47.7592 46.3094 48.4412 46.9915 49.2826 46.9915Z" fill="#05581C"/>
<path d="M8.14978 13.4429C8.99115 13.4429 9.67322 12.7608 9.67322 11.9194C9.67322 11.0781 8.99115 10.396 8.14978 10.396C7.30841 10.396 6.62634 11.0781 6.62634 11.9194C6.62634 12.7608 7.30841 13.4429 8.14978 13.4429Z" fill="#05581C"/>
<path d="M21.8607 30.2007C22.7021 30.2007 23.3842 29.5186 23.3842 28.6772C23.3842 27.8359 22.7021 27.1538 21.8607 27.1538C21.0193 27.1538 20.3373 27.8359 20.3373 28.6772C20.3373 29.5186 21.0193 30.2007 21.8607 30.2007Z" fill="#05581C"/>
<path d="M29.0611 26.6993L40.2456 37.2878C40.6797 37.7205 41.1948 38.0635 41.7615 38.2971C42.3282 38.5307 42.9354 38.6503 43.5484 38.6491C44.744 38.6491 45.9396 38.1957 46.8512 37.2878L48.4648 35.7607L43.7921 31.3366L43.7775 31.322C42.4722 30.0167 41.7544 28.2824 41.7544 26.4372C41.7544 24.5921 42.4734 22.8566 43.7775 21.5525C45.0828 20.2472 46.8171 19.5294 48.6623 19.5294C50.5074 19.5294 52.2417 20.2472 53.547 21.5525L53.898 21.9035L54.249 21.5525C54.8889 20.9089 55.6501 20.3986 56.4886 20.0514C57.3271 19.7041 58.2262 19.5267 59.1338 19.5294C59.6651 19.5294 60.1867 19.5903 60.6913 19.7073C60.5589 17.497 59.6195 15.4122 58.0515 13.8488C54.5122 10.3095 48.7549 10.3095 45.2156 13.8488L43.5496 15.5148L41.8836 13.8488C38.3443 10.3095 32.5869 10.3095 29.0477 13.8488C28.2023 14.6896 27.532 15.6898 27.0757 16.7915C26.6195 17.8931 26.3863 19.0743 26.3896 20.2667C26.3896 22.6908 27.3341 24.9699 29.0477 26.6846L29.0611 26.6993ZM4.34119 70.6047H16.5287V38.6126H4.34119V70.6047ZM11.1967 63.7493C11.6007 63.7493 11.9882 63.9098 12.2739 64.1955C12.5596 64.4812 12.7201 64.8687 12.7201 65.2727C12.7201 65.6768 12.5596 66.0642 12.2739 66.3499C11.9882 66.6356 11.6007 66.7961 11.1967 66.7961C10.7926 66.7961 10.4051 66.6356 10.1194 66.3499C9.83372 66.0642 9.67322 65.6768 9.67322 65.2727C9.67322 64.8687 9.83372 64.4812 10.1194 64.1955C10.4051 63.9098 10.7926 63.7493 11.1967 63.7493ZM67.6418 48.0603L38.8257 56.1723C38.7587 56.1913 38.6894 56.2008 38.6197 56.2003H24.9088C24.7068 56.2003 24.513 56.1201 24.3702 55.9772C24.2273 55.8344 24.1471 55.6406 24.1471 55.4386C24.1471 55.2366 24.2273 55.0429 24.3702 54.9C24.513 54.7571 24.7068 54.6769 24.9088 54.6769H37.0963C39.1962 54.6769 40.9049 52.9682 40.9049 50.8683C40.9049 48.7684 39.1962 47.0597 37.0963 47.0597H27.9557C27.8556 47.0597 27.7566 47.04 27.6642 47.0018C27.5717 46.9635 27.4877 46.9074 27.417 46.8367L23.0697 42.4894H18.0533V66.8644H21.8619C21.9911 66.8644 22.1191 66.8973 22.2324 66.9607L28.03 70.1806C30.3329 71.4708 32.9292 72.1462 35.5689 72.1417C38.2086 72.1372 40.8026 71.453 43.1011 70.155L43.1194 70.1453L70.7192 55.6568C71.2119 55.3938 71.646 55.0334 71.995 54.5974C72.3441 54.1614 72.6008 53.659 72.7496 53.1207C72.8983 52.5823 72.9361 52.0194 72.8604 51.466C72.7848 50.9127 72.5974 50.3805 72.3097 49.9018C71.8418 49.1249 71.1312 48.5235 70.2876 48.1907C69.4439 47.8578 68.5141 47.812 67.6418 48.0603Z" fill="#05581C"/>
</svg>
