<svg width="76" height="76" viewBox="0 0 76 76" fill="none" xmlns="http://www.w3.org/2000/svg">
<path d="M63.0013 0.500247C61.3311 0.497129 61.3311 3.00343 63.0013 3.00036H64.2513V5.5884C59.2548 6.21792 55.5059 10.4648 55.5012 15.501C55.5012 21.0242 59.9784 25.5016 65.5014 25.5016C71.0243 25.5015 75.5016 21.0241 75.5015 15.501C75.4954 10.4658 71.747 6.22026 66.7514 5.59085V3.00036H68.0014C69.6716 3.00343 69.6716 0.497129 68.0014 0.500247H63.0013ZM42.9985 9.25069C41.3283 9.24761 41.3283 11.7539 42.9985 11.7508H51.7486C53.4188 11.754 53.4188 9.24762 51.7486 9.25069H42.9985ZM64.5587 11.7331C62.6324 12.2493 61.4412 14.1509 61.7828 16.0888C62.1291 18.0529 63.9171 19.4074 65.8796 19.2359C67.8663 19.0621 69.3758 17.3947 69.3758 15.4247C69.4136 13.7722 71.8244 13.7478 71.8782 15.4247C71.8782 18.7126 69.3576 21.4414 66.1018 21.7263C62.846 22.0112 59.9015 19.7665 59.3194 16.5234C58.7419 13.3065 60.7573 10.1619 63.9142 9.31598C64.0224 9.28291 64.1339 9.26874 64.2464 9.26916C65.692 9.31211 65.9759 11.3036 64.5587 11.7331ZM69.6421 12.3801L66.4975 16.2646C65.4488 17.5646 63.5006 15.9858 64.5541 14.6898L67.6987 10.8078C67.9609 10.4827 68.2786 10.3368 68.5922 10.3219C69.5332 10.2793 70.4322 11.408 69.6421 12.3801ZM45.4985 14.2503C43.8284 14.2472 43.8284 16.7535 45.4985 16.7505H51.7486C53.4188 16.7536 53.4188 14.2473 51.7486 14.2503H45.4985ZM49.2486 19.2506C47.5785 19.2475 47.5785 21.7538 49.2486 21.7507H51.7486C53.4188 21.7539 53.4188 19.2475 51.7486 19.2506H49.2486ZM15.5592 39.2612V24.2508H5.5026C3.44669 24.2508 1.7452 25.9425 1.7452 27.9986V63.0005C1.055 63.0031 0.500061 63.5595 0.500061 64.2505V66.7531C0.500061 67.4456 1.0576 68.0038 1.75012 68.0031L5.49287 68.0006C5.49287 62.5024 10.0144 57.9928 15.5053 57.9928C20.9961 57.9928 25.5079 62.5058 25.5079 68.0006H51.7511C51.7511 62.5024 56.2726 57.9928 61.7635 57.9928C67.2544 57.9928 71.7661 62.5058 71.7661 68.0006L74.2515 68.0031C74.9441 68.0031 75.5015 67.4456 75.5015 66.7531V64.2505C75.5015 63.5579 74.9441 63.0005 74.2515 63.0005H73.0015V55.5025H70.5015C68.8343 55.5025 68.8496 53.2276 70.5015 53.0024H73.0015V50.5022C73.0015 50.0576 72.8258 49.8608 72.6817 49.6209C70.496 45.9803 61.8929 31.6512 61.8929 31.6512C61.2601 30.3561 60.4988 30.4988 59.2537 30.4988H48.001V63.0005H45.5009V27.9986C45.5009 25.9425 43.8117 24.2508 41.7558 24.2508H33.0105V39.2565C33.0135 40.9859 31.1824 42.2282 29.5778 41.5833L24.253 39.4518L18.9967 41.5685C17.3943 42.2153 15.5697 40.9879 15.5592 39.2612ZM30.5101 24.2508H18.0615V39.2467L23.7818 36.9419C24.0809 36.8215 24.4152 36.8215 24.7144 36.9419L30.5054 39.2565L30.5101 24.2508ZM54.0509 34.2562H58.8924C59.7376 34.2604 60.4697 34.6914 60.8846 35.3989L67.916 47.0133C68.8368 48.5892 67.6854 50.5017 65.914 50.4973H54.0656C52.8019 50.5021 51.7563 49.483 51.7511 48.1901V36.5635C51.7511 35.2958 52.783 34.2562 54.0509 34.2562ZM54.2512 36.7466V47.9948H65.5918L58.7826 36.7466H54.2512ZM29.2508 51.7499C29.8767 51.7499 30.5024 52.167 30.5008 53.0024V58.0002C30.5039 59.6704 27.9977 59.6704 28.0008 58.0002V53.0024C27.9993 52.1672 28.6248 51.7499 29.2508 51.7499ZM34.2509 51.7499C34.8768 51.7499 35.5024 52.167 35.5009 53.0024V58.0002C35.504 59.6704 32.9978 59.6704 33.0009 58.0002V53.0024C32.9994 52.1672 33.625 51.7499 34.2509 51.7499ZM39.251 51.7499C39.8769 51.7499 40.5026 52.167 40.501 53.0024V58.0002C40.5041 59.6704 37.9979 59.6704 38.0009 58.0002V53.0024C37.9994 52.1672 38.625 51.7499 39.251 51.7499ZM51.7537 53.0024H53.0037C54.6739 52.9992 54.6739 55.5055 53.0037 55.5025H51.7537C50.0835 55.5056 50.0835 52.9993 51.7537 53.0024ZM15.5054 60.4979C11.3742 60.4979 7.99548 63.8666 7.99548 67.9983C7.99548 72.13 11.3742 75.5011 15.5054 75.5011C19.6366 75.5011 23.0056 72.13 23.0056 67.9983C23.0056 63.8666 19.6366 60.4979 15.5054 60.4979ZM61.7612 60.4979C57.63 60.4979 54.2513 63.8666 54.2513 67.9983C54.2513 72.13 57.63 75.5011 61.7612 75.5011C65.8925 75.5011 69.2613 72.13 69.2613 67.9983C69.2613 63.8666 65.8925 60.4979 61.7612 60.4979ZM15.5054 64.2505C17.5628 64.2505 19.2506 65.9383 19.2506 67.9958C19.2506 70.0534 17.5628 71.7533 15.5054 71.7533C13.4479 71.7533 11.748 70.0551 11.748 67.9958C11.748 65.9366 13.4479 64.2505 15.5054 64.2505ZM61.7636 64.2505C63.8211 64.2505 65.5088 65.9383 65.5088 67.9958C65.5088 70.0534 63.8211 71.7533 61.7636 71.7533C59.7062 71.7533 58.0062 70.0551 58.0062 67.9958C58.0062 65.9366 59.7062 64.2505 61.7636 64.2505ZM15.5054 66.7506C14.8078 66.7506 14.2505 67.2993 14.2505 67.9958C14.2505 68.6923 14.8078 69.2532 15.5054 69.2532C16.203 69.2532 16.7506 68.694 16.7506 67.9958C16.7506 67.2976 16.203 66.7506 15.5054 66.7506ZM61.7636 66.7506C61.066 66.7506 60.5087 67.2993 60.5087 67.9958C60.5087 68.6923 61.066 69.2532 61.7636 69.2532C62.4613 69.2532 63.0088 68.694 63.0088 67.9958C63.0088 67.2976 62.4613 66.7506 61.7636 66.7506Z" fill="#05581C"/>
</svg>
