<svg width="70" height="70" viewBox="0 0 70 70" fill="none" xmlns="http://www.w3.org/2000/svg">
<path d="M39.1257 55.406C28.2651 57.3575 19.9076 61.4514 20.4697 64.559C21.0318 67.6666 30.2803 68.5999 41.1515 66.6484C52.0121 64.6969 60.3697 60.6029 59.8076 57.4953C59.2454 54.3878 49.9864 53.4544 39.1257 55.406Z" fill="#05581C"/>
<path d="M50.0818 2.89538C28.6576 -0.498556 8.29393 12.6317 8.29393 12.6317C8.29393 12.6317 -6.43789 24.5954 6.15151 34.4166C13.8409 40.409 16.8636 44.609 18.0621 46.9742C23.047 43.7393 33.4727 38.4151 47.0697 39.3908C47.653 39.4333 48.0985 39.9424 48.0561 40.5257C48.0136 41.109 47.4939 41.5439 46.9212 41.5121C33.6424 40.5575 23.3758 46.0408 18.8151 49.0424C18.8364 49.1802 18.8364 49.2439 18.8364 49.2439L20.0454 60.656C23.7788 56.9333 32.7303 54.3878 38.7439 53.3166C42.5727 52.6272 46.3697 52.256 49.7212 52.256C53.0197 52.256 56.7848 52.606 59.2561 53.9105L57.5909 42.806C57.5909 42.806 60.3485 32.4545 64.8136 26.9181C69.2788 21.3817 68.8333 16.7363 68.8333 16.7363C68.8333 16.7363 71.5167 6.28932 50.0818 2.89538ZM18.9848 42.2014C18.5076 41.3954 18.0091 40.6105 17.447 39.8469C16.3626 38.3377 15.2088 36.8796 13.9894 35.4772C12.7909 34.4166 11.603 33.3348 10.553 32.1257C9.44999 30.9272 8.47424 29.6227 7.56212 28.2757C6.68181 26.9075 5.88636 25.4863 5.2606 23.9802C4.63484 22.4848 4.11515 20.9363 3.91363 19.3348C4.51818 20.8196 5.27121 22.2196 6.07727 23.5772C6.89393 24.9242 7.77424 26.2181 8.70757 27.4802C9.19545 28.0954 9.66212 28.7211 10.1818 29.3045C10.6697 29.9196 11.1894 30.503 11.7197 31.0757C12.2394 31.659 12.8121 32.1999 13.3424 32.7727L15.0394 34.3954L15.103 34.459L15.1242 34.4802C16.3227 36.0181 17.4045 37.609 18.3379 39.306C18.8045 40.1545 19.2182 41.0348 19.547 41.9469C19.8758 42.8484 20.1409 43.8242 20.0773 44.7999C19.897 43.8454 19.4409 43.0181 18.9848 42.2014ZM23.4712 42.8166C23.5454 42.4772 23.4712 42.1378 23.397 41.8196C23.3227 41.4908 23.2167 41.1727 23.1 40.8545C22.8667 40.2287 22.5803 39.6136 22.2833 39.009C21.6894 37.7999 20.9894 36.6333 20.2894 35.4772C18.8788 33.1651 17.3197 30.9484 15.8985 28.5514C14.5091 26.1545 13.2894 23.6514 12.3348 21.053C11.3909 18.4545 10.6273 15.7605 10.447 12.9924C11.2742 15.6121 12.3454 18.1151 13.4803 20.5757C14.647 23.0257 15.8879 25.4227 17.2773 27.7454C18.6242 30.0681 20.1727 32.3802 21.3924 34.8727C22.0076 36.1136 22.5803 37.3863 23.0151 38.7121C23.2273 39.3802 23.4288 40.0484 23.5454 40.7378C23.6303 41.4166 23.747 42.159 23.4712 42.8166ZM29.2833 40.3454C29.103 38.9878 28.6682 37.6939 28.2545 36.3999C27.8303 35.106 27.353 33.8333 26.8758 32.5605C25.9106 30.0257 24.8288 27.5227 23.9061 24.9136C23.0045 22.3151 22.2091 19.6742 21.5727 17.0014C20.9258 14.3287 20.3848 11.6242 20.0879 8.88781C21.0212 11.4757 21.8909 14.0742 22.7606 16.6621C23.6409 19.2393 24.4894 21.8378 25.4121 24.3939C26.2924 26.9499 27.3212 29.506 28.0636 32.1787C28.4454 33.5045 28.7742 34.8514 29.0182 36.2196C29.2197 37.5666 29.453 38.956 29.2833 40.3454ZM35.7106 37.5454C35.2015 34.7878 34.8727 32.0196 34.6182 29.2408C34.3636 26.4621 34.2045 23.6727 34.1515 20.8727C34.1197 18.0196 34.4167 15.3045 34.2576 12.5787C34.1621 11.2211 34.0454 9.86357 33.6848 8.56963C33.5151 7.92266 33.2818 7.28629 32.953 6.70296C32.6136 6.14084 32.1788 5.56811 31.5212 5.32417C32.2318 5.40902 32.847 5.90751 33.3136 6.44841C33.7803 7.01054 34.1303 7.65751 34.4273 8.31508C34.9894 9.65144 35.297 11.0621 35.4985 12.4727C35.6894 13.8833 35.7636 15.3045 35.7636 16.7151C35.753 18.1469 35.7106 19.4727 35.753 20.8727L35.8697 29.1984C35.8803 31.956 35.8591 34.7454 35.7106 37.5454ZM46.6348 21.2545L45.9879 23.3439L45.3939 25.3908C44.9909 26.759 44.6515 28.1484 44.3015 29.5272C43.6758 32.306 42.9651 35.0954 43.1136 37.9802C42.6682 36.5908 42.6258 35.0954 42.647 33.6317C42.7 32.1681 42.8591 30.7151 43.0818 29.2833C43.2939 27.8408 43.6121 26.4196 43.9409 24.9984C44.1106 24.2878 44.3015 23.5984 44.503 22.8772L45.097 20.8302C45.8712 18.1045 46.4227 15.3363 46.5182 12.5363C46.5182 11.1469 46.4545 9.7469 46.1045 8.38932C45.7545 7.05296 45.203 5.70599 44.1742 4.68781C45.4364 5.44084 46.2636 6.78781 46.847 8.14538C47.4091 9.54538 47.6636 11.0302 47.7697 12.5151C47.9288 15.4848 47.3985 18.4333 46.6348 21.2545ZM50.9197 33.5469C50.3605 35.0002 49.872 36.4797 49.4561 37.9802C49.6788 34.8514 50.4636 31.7651 51.4712 28.7954C52.4682 25.8045 53.7515 22.9302 55.1833 20.1302C55.9364 18.7302 56.6576 17.3939 57.2621 16.0257C57.5273 15.3257 57.8667 14.6469 58.0364 13.9257C58.1318 13.5651 58.2591 13.2151 58.3333 12.8545L58.5242 11.7621C58.6939 10.309 58.5985 8.81357 58.0045 7.45599C57.4424 6.08781 56.3394 4.94235 54.9924 4.1575C55.7454 4.38023 56.4561 4.77266 57.0818 5.28175C57.7182 5.76963 58.2591 6.40599 58.6939 7.09538C59.5424 8.5166 59.85 10.2242 59.7545 11.8681L59.6379 13.0984C59.5848 13.5014 59.4576 13.8939 59.3727 14.2863C59.2242 15.0924 58.8955 15.8348 58.6409 16.5984C58.0364 18.0939 57.2833 19.5151 56.5833 20.8621C55.1515 23.5984 53.8364 26.3984 52.6273 29.2408C52.0188 30.6603 51.4494 32.0962 50.9197 33.5469ZM64.0182 24.606C56.6045 36.0181 56.6045 40.3348 56.6045 40.3348C56.6045 40.3348 56.5197 33.4302 61.8758 25.0408C61.8758 25.0408 55.9788 28.1696 54.197 39.1469C54.197 39.1469 52.903 31.8924 62.8091 20.8302C65.5561 17.7651 66.4576 13.3636 64.803 9.59841C64.697 9.36508 64.5909 9.12114 64.4636 8.8772C64.4636 8.8772 71.4212 13.1939 64.0182 24.606Z" fill="#05581C"/>
</svg>
