<svg width="65" height="65" viewBox="0 0 65 65" fill="none" xmlns="http://www.w3.org/2000/svg">
<path d="M61.1615 43.7977C59.6061 44.8848 57.8187 45.5914 55.9422 45.861C54.0658 46.1307 52.1526 45.9558 50.3556 45.3505C50.1928 45.2923 50.0184 45.2743 49.8472 45.2982C49.676 45.322 49.5131 45.3869 49.3722 45.4874L44.5361 48.9283L45.7806 50.687L50.1686 47.5599C52.2194 48.161 54.3781 48.2955 56.4872 47.9535C58.5964 47.6116 60.6031 46.8019 62.3609 45.5834C62.9942 45.154 63.5945 44.6775 64.1567 44.1579L62.6994 42.5728C62.2184 43.0195 61.7043 43.429 61.1615 43.7977Z" fill="#05581C"/>
<path d="M50.3394 27.7048C48.8013 28.6909 47.5691 30.0895 46.7826 31.7422C45.996 33.395 45.6865 35.2357 45.8892 37.0558L32.2654 45.8182L18.6394 37.0612C18.8464 35.2405 18.5385 33.398 17.7507 31.7447C16.9629 30.0913 15.7271 28.6939 14.1848 27.7123C12.1376 26.2965 9.64803 25.6735 7.17788 25.959C6.01271 26.0734 4.88709 26.4446 3.8814 27.046C2.87571 27.6473 2.01475 28.4641 1.36 29.4379C0.705244 30.4117 0.272847 31.5185 0.0936798 32.6793C-0.085487 33.8402 -0.00700389 35.0264 0.323525 36.1533C0.985656 38.5571 2.49433 40.6382 4.56961 42.0107C6.05555 43.0794 7.81163 43.7063 9.63644 43.8194C11.4612 43.9325 13.2809 43.5273 14.8866 42.6501L25.4626 50.1842L15.3982 56.6595C14.9224 56.9627 14.5122 57.3588 14.1918 57.824C13.8714 58.2893 13.6474 58.8144 13.5329 59.3682C13.4185 59.9219 13.416 60.4931 13.5255 61.0478C13.6351 61.6026 13.8546 62.1296 14.1709 62.5977C14.4859 63.0648 14.8909 63.464 15.3619 63.7719C15.8328 64.0797 16.3604 64.2901 16.9135 64.3905C17.4667 64.491 18.0342 64.4795 18.5829 64.3568C19.1316 64.2341 19.6502 64.0026 20.1085 63.676L32.2654 55.0258L44.4222 63.6825C44.881 64.0192 45.4028 64.2596 45.9564 64.3891C46.5099 64.5187 47.0838 64.5348 47.6438 64.4366C48.2037 64.3383 48.7381 64.1276 49.2149 63.8171C49.6917 63.5067 50.1012 63.1028 50.4188 62.6298C50.7364 62.1568 50.9555 61.6243 51.0631 61.0643C51.1707 60.5042 51.1645 59.9282 51.0449 59.3706C50.9253 58.813 50.6947 58.2854 50.3671 57.8194C50.0394 57.3533 49.6213 56.9584 49.1379 56.6584L39.0617 50.1885L49.6452 42.6512C51.2507 43.5286 53.0703 43.9343 54.8951 43.8216C56.7199 43.7088 58.476 43.0823 59.9622 42.0139C64.3792 39.0227 65.8214 33.3788 63.1744 29.4322C60.5275 25.4856 54.7661 24.7135 50.3394 27.7048ZM18.864 61.9216C18.4048 62.2317 17.843 62.3495 17.2985 62.2498C16.754 62.15 16.2699 61.8407 15.9495 61.3878C15.7944 61.1583 15.6868 60.8998 15.6331 60.6278C15.5795 60.3557 15.5808 60.0756 15.637 59.8041C15.6932 59.5326 15.8032 59.2752 15.9605 59.0471C16.1177 58.819 16.319 58.625 16.5524 58.4764L27.3519 51.5278L30.4029 53.6995L18.864 61.9216ZM48.8908 59.8049C48.975 60.214 48.9345 60.6391 48.7746 61.0248C48.6147 61.4106 48.3429 61.7391 47.9944 61.9677C47.6459 62.1963 47.2369 62.3143 46.8206 62.3065C46.4043 62.2986 46 62.1653 45.6603 61.9237L15.5271 40.4654C15.3434 40.3347 15.1234 40.2652 14.8981 40.2668C14.6729 40.2683 14.4538 40.3408 14.2719 40.4741C12.9988 41.3077 11.5018 41.7305 9.98224 41.6856C8.46264 41.6407 6.99312 41.1302 5.77111 40.2228C4.12695 39.1407 2.92955 37.4972 2.40089 35.5969C2.14793 34.7668 2.08313 33.8904 2.21125 33.032C2.33937 32.1735 2.65716 31.3546 3.14136 30.6353C3.62557 29.9159 4.26394 29.3143 5.00976 28.8744C5.75559 28.4345 6.58999 28.1675 7.45192 28.093C9.40575 27.8729 11.3728 28.371 12.9887 29.4948C14.284 30.2925 15.3051 31.4687 15.9149 32.8656C16.5246 34.2625 16.6938 35.8131 16.3998 37.3092C16.3445 37.5286 16.3594 37.7598 16.4424 37.9701C16.5253 38.1805 16.6721 38.3593 16.8619 38.4814L47.9784 58.4753C48.2118 58.624 48.4129 58.8183 48.5696 59.0468C48.7264 59.2752 48.8356 59.5331 48.8908 59.8049ZM58.7564 40.2207C57.534 41.1279 56.0642 41.638 54.5444 41.6825C53.0246 41.727 51.5276 41.3038 50.2545 40.4698C50.0726 40.3365 49.8535 40.264 49.6283 40.2625C49.4031 40.2609 49.183 40.3304 48.9993 40.4611L37.1101 48.9302L34.26 47.097L47.6656 38.4706C47.855 38.3487 48.0015 38.1702 48.0844 37.9603C48.1673 37.7504 48.1825 37.5196 48.1277 37.3006C47.8395 35.8042 48.0119 34.2552 48.622 32.8594C49.232 31.4637 50.2508 30.2871 51.5431 29.4861C54.9821 27.1602 59.4034 27.6735 61.3905 30.627C63.3775 33.5805 62.1943 37.8948 58.7564 40.2207Z" fill="#05581C"/>
<path d="M11.7679 1.97639L10.5782 0.179932C7.98217 1.90588 6.0353 4.45263 5.04676 7.41572C4.05823 10.3788 4.08471 13.5883 5.12201 16.5346L7.14779 15.8143C6.27067 13.3209 6.24901 10.605 7.08627 8.09784C7.92352 5.5907 9.57168 3.43615 11.7689 1.97639H11.7679Z" fill="#05581C"/>
<path d="M9.42865 19.6987C8.91119 19.1097 8.4526 18.4711 8.0595 17.7922L6.19922 18.8705C6.66336 19.6732 7.2051 20.428 7.81662 21.1242L9.42865 19.6987Z" fill="#05581C"/>
<path d="M44.0657 36.878L47.1253 21.5294C49.6128 21.3122 51.9203 20.1382 53.5648 18.253C55.2094 16.3678 56.0636 13.9176 55.9488 11.4149C55.834 8.9122 54.759 6.55103 52.9488 4.82542C51.1386 3.09981 48.7334 2.14347 46.2365 2.15651C44.0634 2.14879 41.9527 2.88479 40.2527 4.24303C39.3672 2.93581 38.1765 1.86577 36.7843 1.12621C35.3922 0.386639 33.8408 0 32.2656 0C30.6903 0 29.139 0.386639 27.7469 1.12621C26.3547 1.86577 25.164 2.93581 24.2785 4.24303C22.5785 2.88479 20.4678 2.14879 18.2947 2.15651C15.8063 2.15628 13.4136 3.11832 11.614 4.84262C9.81434 6.56693 8.74627 8.92082 8.63183 11.4149C8.51738 13.909 9.36535 16.3514 10.9995 18.2344C12.6336 20.1173 14.928 21.2959 17.4059 21.525L20.4655 36.878L22.5719 36.4553L21.9701 33.4274H42.5611L41.9593 36.4467L44.0657 36.878ZM38.8781 31.2708L39.7777 24.9541L37.6498 24.6478L36.7073 31.2708H33.3403V19.4094H31.1909V31.2708H27.8239L26.8814 24.6478L24.7535 24.9541L25.653 31.2708H21.5402L19.3479 20.2721C19.2983 20.0285 19.1664 19.8096 18.9745 19.6524C18.7826 19.4952 18.5424 19.4094 18.2947 19.4094C16.2995 19.4094 14.386 18.6142 12.9752 17.1986C11.5644 15.7831 10.7719 13.8632 10.7719 11.8613C10.7719 9.85937 11.5644 7.93947 12.9752 6.52392C14.386 5.10837 16.2995 4.31312 18.2947 4.31312C19.3188 4.31049 20.3325 4.5198 21.2724 4.92797C22.2123 5.33614 23.0582 5.93441 23.7573 6.6854C23.8767 6.81214 24.0251 6.90791 24.1895 6.9645C24.354 7.02109 24.5296 7.0368 24.7015 7.01029C24.8733 6.98378 25.0361 6.91585 25.1761 6.8123C25.316 6.70876 25.4288 6.57271 25.5047 6.41582C26.1187 5.1401 27.0787 4.06394 28.2745 3.31087C29.4704 2.55779 30.8537 2.15832 32.2656 2.15832C33.6775 2.15832 35.0608 2.55779 36.2566 3.31087C37.4525 4.06394 38.4125 5.1401 39.0264 6.41582C39.1024 6.57271 39.2152 6.70876 39.3551 6.8123C39.495 6.91585 39.6579 6.98378 39.8297 7.01029C40.0016 7.0368 40.1772 7.02109 40.3417 6.9645C40.5061 6.90791 40.6544 6.81214 40.7739 6.6854C41.473 5.93441 42.3189 5.33614 43.2588 4.92797C44.1987 4.5198 45.2124 4.31049 46.2365 4.31312C48.2317 4.31312 50.1451 5.10837 51.5559 6.52392C52.9667 7.93947 53.7593 9.85937 53.7593 11.8613C53.7593 13.8632 52.9667 15.7831 51.5559 17.1986C50.1451 18.6142 48.2317 19.4094 46.2365 19.4094C45.9888 19.4094 45.7486 19.4952 45.5567 19.6524C45.3648 19.8096 45.2329 20.0285 45.1833 20.2721L42.991 31.2708H38.8781Z" fill="#05581C"/>
</svg>
