<svg width="24" height="24" viewBox="0 0 24 24" fill="none" xmlns="http://www.w3.org/2000/svg">
<path d="M16.9722 6.251C16.7426 6.12325 16.4901 6.04201 16.2291 6.01193C15.9681 5.98184 15.7037 6.0035 15.4511 6.07567C15.1985 6.14783 14.9626 6.26908 14.7568 6.43249C14.5511 6.5959 14.3796 6.79826 14.2522 7.028L10.5392 13.71L8.41416 11.585C8.22967 11.394 8.00898 11.2416 7.76497 11.1368C7.52096 11.032 7.25852 10.9768 6.99296 10.9745C6.72741 10.9722 6.46405 11.0228 6.21825 11.1234C5.97246 11.2239 5.74916 11.3724 5.56137 11.5602C5.37359 11.748 5.22508 11.9713 5.12452 12.2171C5.02396 12.4629 4.97335 12.7262 4.97566 12.9918C4.97797 13.2574 5.03314 13.5198 5.13796 13.7638C5.24278 14.0078 5.39514 14.2285 5.58616 14.413L9.58616 18.413C9.96416 18.792 10.4742 19 11.0002 19L11.2772 18.98C11.5837 18.9371 11.8761 18.8237 12.1314 18.6486C12.3866 18.4735 12.5978 18.2415 12.7482 17.971L17.7482 8.971C17.8758 8.74145 17.957 8.48901 17.9871 8.22808C18.0172 7.96715 17.9956 7.70286 17.9235 7.45028C17.8515 7.1977 17.7304 6.96179 17.5671 6.75602C17.4039 6.55024 17.2017 6.37864 16.9722 6.251Z" fill="white"/>
</svg>
