<svg width="36" height="36" viewBox="0 0 36 36" fill="none" xmlns="http://www.w3.org/2000/svg">
<path d="M34.5 18C34.5 27.1126 27.1126 34.5 18 34.5C8.88731 34.5 1.5 27.1126 1.5 18C1.5 8.88731 8.88731 1.5 18 1.5C27.1126 1.5 34.5 8.88731 34.5 18ZM4.51024 18C4.51024 25.4502 10.5498 31.4898 18 31.4898C25.4502 31.4898 31.4898 25.4502 31.4898 18C31.4898 10.5498 25.4502 4.51024 18 4.51024C10.5498 4.51024 4.51024 10.5498 4.51024 18Z" fill="#05581C"/>
<path d="M18 7.5C17.1715 7.5 16.5 8.17156 16.5 9V18.7C16.5 18.7 16.5 19.0911 16.6901 19.3853C16.8173 19.6347 17.0155 19.8515 17.2761 20.0019L24.2058 24.0028C24.9232 24.417 25.8406 24.1712 26.2548 23.4537C26.669 22.7363 26.4232 21.8189 25.7058 21.4047L19.5 17.8218V9C19.5 8.17158 18.8284 7.5 18 7.5Z" fill="#05581C"/>
</svg>
