<svg width="63" height="63" viewBox="0 0 63 63" fill="none" xmlns="http://www.w3.org/2000/svg">
<path d="M46.8307 25.1863L50.5322 24.9505C50.5385 24.95 50.5452 24.9495 50.5519 24.949C53.1898 24.7252 55.5575 23.3355 57.0485 21.1353L59.9747 16.8178C62.5216 13.0592 63.5084 8.51941 62.7524 4.03522C62.6038 3.15453 62.1559 2.34296 61.4916 1.75084C60.8269 1.15823 59.9723 0.808274 59.085 0.765738C54.5659 0.548223 50.2039 2.07808 46.799 5.07156L42.8874 8.51071C40.8942 10.2629 39.806 12.7933 39.9011 15.4543C39.9016 15.4605 39.9016 15.4673 39.9021 15.4741L40.1131 19.1974C40.1953 20.649 39.6661 22.0812 38.6639 23.1243L8.10496 54.6948C7.28688 55.5528 6.86439 56.7298 6.91582 58.0093C6.97254 59.4178 7.61517 60.8012 8.63512 61.7104C9.55653 62.5317 10.8231 62.9995 12.0891 62.9995C12.2246 62.9995 12.3602 62.9942 12.4952 62.9831C13.7646 62.8811 14.8764 62.3185 15.6291 61.3933L43.1258 27.1063C44.0376 25.9781 45.3883 25.2782 46.8307 25.1863ZM41.6579 25.9114L14.1636 60.1955C13.7435 60.7118 13.0975 61.0298 12.3448 61.0903C11.4493 61.1623 10.5313 60.8626 9.88818 60.2893C9.24507 59.7156 8.83939 58.8349 8.80335 57.9324C8.77258 57.174 9.00858 56.491 9.46328 56.0144L40.0199 24.4463C41.3897 23.0209 42.1107 21.0685 41.9992 19.0896L41.7882 15.3759C41.7166 13.2931 42.5697 11.3128 44.1304 9.9405L48.042 6.50135C51.0778 3.83269 54.9682 2.47008 58.9951 2.66246C59.4536 2.6847 59.8949 2.86548 60.2385 3.17193C60.5822 3.4779 60.8134 3.89746 60.8903 4.35231C61.5642 8.35023 60.6846 12.397 58.414 15.7477L55.4878 20.0656C54.3203 21.7883 52.4673 22.8773 50.4025 23.0557L46.711 23.2906C44.7442 23.4163 42.9033 24.3704 41.6579 25.9114Z" fill="#05581C"/>
<path d="M61.2554 54.4548L40.7657 35.6872C40.3802 35.3338 39.7832 35.3619 39.4314 35.7495C39.0805 36.1372 39.1084 36.738 39.4939 37.0914L59.9783 55.8546C60.4657 56.3075 60.742 56.975 60.7569 57.7339C60.7747 58.6368 60.4224 59.5403 59.8144 60.1517C59.2068 60.7627 58.3099 61.118 57.4102 61.0996C56.6555 61.0846 55.9918 60.8067 55.5462 60.3219L37.2881 40.1636C36.9368 39.7755 36.3393 39.7479 35.9539 40.1008C35.5684 40.4541 35.5405 41.0549 35.8918 41.4426L54.1542 61.6057C54.9569 62.4786 56.0999 62.9736 57.3732 62.9987C57.4063 62.9992 57.439 62.9997 57.4722 62.9997C58.8406 62.9997 60.209 62.4414 61.1496 61.495C62.1138 60.5253 62.6728 59.1057 62.645 57.6967C62.62 56.4163 62.1283 55.2668 61.2554 54.4548Z" fill="#05581C"/>
<path d="M11.3952 25.0065C12.9583 26.4547 14.9891 27.2802 17.1135 27.3315C17.1203 27.332 17.127 27.332 17.1333 27.332L20.842 27.3436C22.2878 27.3479 23.6773 27.9652 24.6526 29.0339L26.2863 30.8373C26.4728 31.0432 26.728 31.1476 26.9847 31.1476C27.2116 31.1476 27.4394 31.066 27.6201 30.9002C28.0061 30.5468 28.034 29.946 27.6826 29.5583L26.0465 27.7525C24.7141 26.2918 22.8194 25.4507 20.8482 25.4439L17.1496 25.4323C15.5062 25.3903 13.935 24.7576 12.7175 23.6492L1.96964 10.8004C1.86005 10.6689 1.86822 10.4785 1.98887 10.3572C2.07154 10.2735 2.16863 10.2615 2.2191 10.2615C2.26957 10.2615 2.36666 10.2735 2.44981 10.3572L12.233 20.1961C13.2001 21.1686 14.7737 21.1686 15.7408 20.1956L16.8905 19.0398V19.0394L18.9319 16.9865C18.9319 16.9865 18.9323 16.9865 18.9323 16.986L18.9328 16.9855L20.0821 15.8298C21.0491 14.8573 21.0491 13.2748 20.0821 12.3022L10.2989 2.46383C10.172 2.33622 10.172 2.12789 10.2989 2.00028C10.4195 1.87896 10.6089 1.87074 10.7396 1.98095L23.5163 12.7899C24.6189 14.0138 25.2481 15.5944 25.2899 17.2466L25.301 20.9665C25.3077 22.9483 26.1445 24.8538 27.599 26.1965L29.3495 27.7999C29.7355 28.1532 30.3324 28.1252 30.6838 27.7375C31.0347 27.3494 31.0068 26.749 30.6213 26.3957L28.8737 24.7948C27.8081 23.8116 27.1947 22.4137 27.1899 20.9603L27.1784 17.2306C27.1784 17.2238 27.1784 17.2171 27.1779 17.2103C27.127 15.0738 26.306 13.0316 24.866 11.4597C24.8391 11.4302 24.8102 11.4022 24.7795 11.3761L11.9552 0.527468C11.0689 -0.222713 9.78264 -0.166643 8.96361 0.65701C8.09988 1.52562 8.09988 2.93849 8.96361 3.80661L18.7468 13.6455C18.9775 13.8775 18.9775 14.255 18.7468 14.487L18.2647 14.9714L7.36111 4.00673C6.99245 3.6355 6.39452 3.6355 6.02586 4.00673C5.6572 4.37747 5.6572 4.97877 6.02586 5.34951L16.9295 16.3146L16.2229 17.0247L5.3193 6.06006C4.95064 5.68932 4.35271 5.68932 3.98405 6.06006C3.61491 6.4308 3.61491 7.0321 3.98405 7.40284L14.8872 18.368L14.4056 18.8528C14.1748 19.0848 13.7994 19.0848 13.5687 18.8528L3.78506 9.01438C3.36689 8.59386 2.81078 8.36184 2.2191 8.36184C1.62741 8.36184 1.0713 8.59386 0.653133 9.01438C-0.165898 9.83804 -0.221173 11.1315 0.524318 12.0233L11.3126 24.9195C11.338 24.9504 11.3659 24.9794 11.3952 25.0065Z" fill="#05581C"/>
</svg>
